<?xml version="1.0" standalone="no"?>
<!DOCTYPE svg PUBLIC "-//W3C//DTD SVG 20010904//EN"
 "http://www.w3.org/TR/2001/REC-SVG-20010904/DTD/svg10.dtd">
<svg version="1.0" xmlns="http://www.w3.org/2000/svg"
 width="1750.000000pt" height="1500.000000pt" viewBox="0 0 1750.000000 1500.000000"
 preserveAspectRatio="xMidYMid meet">
<metadata>
</metadata>
<g transform="translate(0.000000,1500.000000) scale(0.100000,-0.100000)"
fill="#6d6e70" stroke="none">
<path d="M12535 12703 c-3 -49 -10 -135 -15 -192 -6 -58 -10 -115 -10 -128 0
-40 15 -25 27 27 20 85 63 167 108 209 55 51 122 71 237 71 104 0 153 -16 168
-56 7 -17 9 -239 8 -630 l-3 -604 -26 -26 c-21 -21 -41 -28 -108 -36 -44 -6
-81 -13 -81 -17 0 -3 135 -6 300 -6 165 0 300 3 300 6 0 4 -37 11 -81 17 -93
12 -115 27 -129 88 -5 21 -10 287 -10 589 0 303 5 568 10 589 16 69 36 80 154
84 138 5 205 -13 262 -73 46 -47 72 -110 81 -197 3 -32 10 -58 14 -58 5 0 9 8
9 18 0 9 5 104 11 211 5 106 8 195 5 198 -3 3 -16 -7 -29 -23 l-24 -28 -214
-9 c-270 -11 -863 -3 -902 12 -16 6 -31 20 -34 31 -11 42 -21 17 -28 -67z"/>
<path d="M9448 12735 c-164 -31 -303 -101 -417 -210 -88 -84 -141 -167 -178
-280 -23 -70 -26 -97 -27 -215 0 -100 4 -152 18 -200 70 -253 272 -444 543
-514 209 -54 502 -32 673 52 54 26 55 28 61 77 16 130 21 245 10 245 -6 0 -11
-5 -11 -11 0 -34 -77 -166 -130 -222 -94 -101 -184 -136 -345 -137 -170 0
-301 55 -425 180 -88 88 -130 156 -173 277 -30 85 -32 94 -32 253 0 128 4 179
18 230 62 227 229 395 439 445 35 8 104 15 153 15 156 0 258 -39 347 -132 44
-46 116 -171 130 -226 9 -32 28 -28 23 6 -2 15 -9 77 -15 137 -6 61 -13 120
-16 133 -5 27 -70 59 -174 87 -90 24 -367 30 -472 10z"/>
<path d="M1650 12720 c0 -5 11 -10 25 -10 13 0 47 -5 75 -11 41 -9 55 -17 71
-42 18 -31 19 -58 19 -635 0 -658 1 -647 -57 -670 -15 -6 -54 -14 -85 -18 -32
-3 -58 -9 -58 -13 0 -3 144 -6 320 -6 313 0 397 7 243 20 -104 9 -152 24 -177
58 -20 27 -21 43 -24 318 l-3 289 144 0 c163 0 228 -14 269 -57 30 -31 48 -72
48 -109 0 -13 5 -24 10 -24 6 0 10 73 10 200 0 127 -4 200 -10 200 -5 0 -10
-8 -10 -17 0 -10 -9 -36 -19 -59 -14 -32 -30 -47 -67 -64 -43 -21 -66 -24
-211 -28 l-163 -5 0 274 c0 379 -7 369 235 369 124 0 157 -4 190 -19 72 -33
120 -101 152 -216 5 -20 9 17 11 115 1 79 0 150 -2 157 -4 10 -99 13 -471 13
-303 0 -465 -3 -465 -10z"/>
<path d="M3510 12720 c0 -5 11 -10 25 -10 13 0 47 -5 75 -11 41 -9 55 -17 71
-42 18 -31 19 -58 19 -635 0 -525 -2 -607 -15 -633 -18 -35 -38 -44 -117 -53
-32 -4 -58 -12 -58 -17 0 -5 195 -9 490 -9 l490 0 9 23 c11 30 23 317 13 317
-5 0 -14 -22 -21 -50 -17 -67 -78 -159 -128 -192 -66 -44 -104 -50 -280 -46
-162 3 -163 3 -190 31 l-28 27 -3 306 -3 306 178 -4 c153 -3 184 -6 218 -23
49 -25 82 -72 91 -131 3 -25 9 -42 13 -39 8 9 8 405 0 405 -4 0 -12 -19 -18
-43 -26 -106 -79 -127 -318 -127 l-163 0 0 258 c0 360 -5 352 235 352 124 0
157 -4 190 -19 72 -33 120 -101 152 -216 5 -20 9 17 11 115 1 79 0 150 -2 157
-4 10 -99 13 -471 13 -303 0 -465 -3 -465 -10z"/>
<path d="M5410 12719 c0 -4 29 -10 65 -14 79 -8 112 -32 125 -90 12 -52 12
-1138 0 -1190 -13 -58 -45 -81 -124 -90 -36 -3 -64 -11 -61 -16 7 -11 1055
-12 1071 -1 6 4 14 60 18 132 3 69 9 146 12 173 7 54 -10 67 -20 15 -18 -96
-95 -201 -180 -246 -51 -27 -52 -27 -274 -27 l-224 0 -24 28 -24 29 2 614 c3
713 -8 648 117 667 39 6 71 14 71 17 0 3 -124 5 -275 5 -151 0 -275 -3 -275
-6z"/>
<path d="M7350 12719 c0 -4 30 -10 66 -14 52 -5 72 -13 97 -35 l32 -28 0 -622
0 -622 -31 -28 c-25 -22 -45 -29 -98 -34 -36 -4 -66 -11 -66 -14 0 -4 124 -7
275 -7 151 0 275 3 275 7 0 4 -26 10 -57 14 -82 10 -110 26 -123 74 -7 26 -10
236 -8 636 l3 596 31 28 c24 21 46 29 93 35 34 4 61 10 61 13 0 4 -124 7 -275
7 -151 0 -275 -3 -275 -6z"/>
<path d="M11060 12719 c0 -4 30 -10 66 -14 52 -5 72 -13 97 -35 l32 -28 0
-622 0 -622 -31 -28 c-25 -22 -45 -29 -98 -34 -36 -4 -66 -11 -66 -14 0 -4
124 -7 275 -7 151 0 275 3 275 7 0 4 -26 10 -57 14 -82 10 -110 26 -123 74 -7
26 -10 236 -8 636 l3 596 31 28 c24 21 46 29 93 35 34 4 61 10 61 13 0 4 -124
7 -275 7 -151 0 -275 -3 -275 -6z"/>
<path d="M14554 12719 c-2 -4 13 -10 33 -14 57 -10 107 -40 149 -88 22 -25
130 -180 242 -346 l203 -301 -3 -286 -3 -286 -31 -28 c-25 -22 -45 -29 -98
-35 -37 -4 -65 -9 -62 -13 8 -7 546 -9 546 -1 0 4 -26 10 -57 14 -134 17 -133
13 -133 386 l0 291 171 265 c212 327 273 391 402 424 26 6 47 14 47 18 0 3
-101 6 -225 6 -214 0 -266 -5 -191 -19 19 -4 46 -16 60 -27 34 -27 35 -85 2
-154 -20 -44 -265 -436 -286 -458 -10 -11 -390 557 -390 582 0 29 24 48 70 56
22 4 40 10 40 14 0 9 -480 8 -486 0z"/>
<path d="M5388 8204 c-303 -54 -531 -237 -614 -490 -26 -80 -29 -102 -29 -219
0 -148 19 -227 83 -350 70 -134 223 -267 376 -326 125 -49 228 -62 421 -56
165 6 415 43 436 64 5 5 4 36 -1 68 -13 78 -13 258 0 326 11 61 37 89 81 89
17 0 29 5 29 13 0 9 -60 12 -265 12 -194 1 -265 -3 -265 -11 0 -7 29 -13 83
-16 152 -8 177 -39 177 -216 0 -144 -13 -195 -60 -242 -49 -49 -109 -65 -235
-64 -192 2 -332 59 -461 188 -93 94 -130 154 -175 286 -29 85 -33 111 -37 236
-4 119 -1 152 16 223 60 235 214 394 438 451 84 22 191 26 275 10 142 -27 257
-123 332 -280 23 -49 46 -89 50 -90 4 0 5 28 1 63 -4 34 -12 105 -18 157 l-11
95 -65 32 c-40 20 -99 38 -154 48 -108 18 -304 18 -408 -1z"/>
<path d="M9716 7658 c-268 -630 -311 -721 -363 -779 -43 -47 -72 -64 -130 -74
-24 -4 -43 -10 -43 -13 0 -8 529 -6 537 1 2 3 -22 8 -54 12 -79 9 -136 38
-158 79 -32 58 -17 127 68 326 l76 175 275 3 276 2 71 -147 c106 -222 148
-317 155 -351 9 -46 -27 -77 -99 -86 -31 -4 -57 -10 -57 -14 0 -4 117 -7 260
-7 143 0 260 3 260 6 0 4 -20 12 -45 19 -33 9 -58 27 -93 64 -49 55 -103 162
-501 991 -93 196 -173 351 -182 353 -10 1 -83 -159 -253 -560z m332 50 l130
-273 -250 -3 c-138 -1 -253 -1 -254 1 -5 5 230 547 237 547 3 0 65 -123 137
-272z"/>
<path d="M7050 8188 c0 -5 11 -8 25 -8 13 0 47 -5 75 -11 41 -9 55 -17 71 -42
18 -31 19 -58 19 -628 0 -411 -3 -606 -11 -628 -14 -39 -46 -56 -121 -65 -32
-4 -58 -10 -58 -14 0 -8 538 -7 546 1 3 2 -23 8 -58 12 -86 10 -115 26 -127
73 -7 21 -11 155 -11 319 l0 282 113 3 112 3 114 -165 c203 -294 365 -491 433
-526 20 -10 68 -14 182 -14 149 0 209 12 129 25 -174 29 -311 159 -622 585
-50 69 -91 130 -91 135 1 6 29 28 63 50 75 49 150 144 172 217 21 72 19 183
-4 235 -27 58 -92 118 -159 145 -56 22 -65 23 -424 23 -203 0 -368 -3 -368 -7z
m630 -30 c89 -27 149 -102 169 -212 26 -140 1 -274 -63 -344 -52 -58 -191 -92
-318 -78 l-68 8 0 261 c0 283 6 327 47 354 47 31 149 36 233 11z"/>
<path d="M11480 8189 c0 -4 17 -10 38 -14 53 -9 115 -49 155 -98 19 -23 125
-176 236 -340 l201 -298 0 -252 c0 -139 -5 -270 -10 -292 -13 -58 -45 -81
-124 -90 -36 -3 -66 -10 -66 -13 0 -4 124 -7 275 -7 151 0 275 3 275 7 0 3
-30 10 -66 13 -47 6 -73 14 -92 30 l-27 23 -3 314 -3 313 167 259 c92 142 188
280 213 307 55 58 147 115 202 124 84 14 30 20 -185 20 -221 0 -278 -6 -195
-20 82 -14 109 -74 73 -161 -9 -22 -80 -139 -157 -261 -109 -171 -144 -220
-153 -210 -7 6 -93 133 -193 281 -215 319 -218 331 -108 351 81 15 26 21 -208
20 -135 0 -245 -3 -245 -6z"/>
<path d="M4350 3673 c0 -60 -15 -257 -25 -330 -10 -67 9 -50 33 30 31 104 74
172 130 208 66 42 113 52 229 47 97 -3 105 -5 131 -31 l27 -27 0 -608 c0 -475
-3 -612 -13 -629 -19 -34 -58 -50 -140 -58 -40 -4 -71 -10 -68 -13 8 -8 606
-8 606 0 0 3 -28 9 -62 13 -99 10 -128 22 -144 61 -21 51 -21 1202 1 1244 22
42 68 53 194 48 94 -4 113 -8 159 -33 82 -44 116 -107 137 -252 12 -75 25 -46
26 55 0 53 4 149 9 212 4 63 6 117 4 119 -2 2 -15 -8 -28 -22 -13 -14 -41 -29
-62 -33 -22 -5 -266 -8 -544 -8 -534 -1 -561 1 -575 45 -12 38 -25 18 -25 -38z"/>
<path d="M13761 3558 c-7 -95 -15 -192 -18 -215 -7 -54 12 -58 22 -6 14 78 59
167 106 215 58 58 119 78 241 78 96 0 149 -15 167 -48 8 -14 11 -210 11 -622
0 -665 1 -649 -62 -668 -18 -6 -61 -14 -95 -17 -35 -4 -63 -10 -63 -13 0 -4
137 -7 305 -7 168 0 305 3 305 6 0 4 -33 10 -72 14 -85 9 -125 26 -138 61 -14
37 -13 1219 1 1246 18 33 71 48 167 48 201 0 296 -77 319 -260 5 -36 13 -65
21 -68 9 -3 12 27 13 125 0 70 4 167 7 216 7 86 2 105 -18 68 -22 -42 -58 -45
-605 -45 -548 -1 -571 1 -582 44 -12 47 -20 10 -32 -152z"/>
<path d="M2885 3671 c-162 -46 -255 -141 -275 -280 -10 -69 2 -150 30 -205 42
-80 111 -139 315 -269 66 -41 138 -91 161 -111 104 -89 156 -221 136 -342 -14
-85 -45 -132 -113 -169 -49 -27 -63 -30 -144 -30 -77 0 -98 4 -147 27 -98 46
-189 164 -240 311 -23 66 -38 85 -38 48 0 -32 20 -273 25 -307 6 -33 30 -49
135 -86 71 -26 255 -36 342 -19 129 25 245 107 297 208 31 61 45 159 32 227
-25 134 -101 215 -338 362 -246 152 -314 232 -314 375 -1 117 55 206 150 238
46 15 157 13 204 -3 88 -32 168 -130 209 -257 12 -38 26 -69 30 -69 8 0 2 240
-7 286 -14 66 -302 108 -450 65z"/>
<path d="M12310 3675 c-127 -36 -219 -106 -263 -203 -16 -36 -21 -67 -22 -132
0 -74 4 -93 28 -143 40 -80 104 -141 242 -228 194 -123 269 -183 314 -250 50
-74 61 -113 61 -209 0 -90 -20 -141 -73 -187 -75 -66 -221 -81 -330 -34 -92
40 -204 188 -247 326 -18 58 -30 66 -30 20 0 -50 19 -273 25 -301 6 -25 112
-77 193 -93 76 -16 238 -14 305 4 128 33 224 104 272 202 37 75 47 204 21 279
-37 108 -105 173 -332 314 -159 99 -238 167 -279 242 -39 71 -42 178 -7 250
45 91 111 128 228 128 84 0 149 -25 200 -76 46 -45 104 -151 124 -223 6 -24
15 -40 20 -35 12 14 -5 281 -20 299 -42 50 -314 82 -430 50z"/>
<path d="M6370 3658 c0 -3 23 -11 51 -18 83 -20 135 -80 364 -419 l205 -305 0
-271 c0 -173 -4 -284 -11 -304 -14 -39 -46 -56 -121 -65 -32 -4 -58 -10 -58
-14 0 -4 122 -7 270 -7 149 0 270 3 270 7 0 4 -26 10 -57 14 -81 9 -110 26
-122 72 -7 21 -11 154 -11 319 l0 281 160 249 c88 136 183 274 211 306 63 71
137 122 202 138 26 6 47 14 47 18 0 3 -101 6 -225 6 -215 1 -271 -5 -186 -20
42 -7 76 -32 86 -65 14 -44 -26 -127 -168 -349 -78 -123 -146 -223 -151 -223
-13 1 -386 563 -386 581 0 27 31 49 78 57 92 14 31 20 -203 20 -135 -1 -245
-4 -245 -8z"/>
<path d="M8530 3659 c0 -4 29 -10 65 -14 79 -8 112 -32 125 -90 12 -52 12
-1138 0 -1190 -13 -58 -45 -81 -124 -90 -36 -3 -64 -11 -61 -16 7 -11 1055
-12 1071 -1 6 4 14 60 18 132 3 69 9 146 12 173 7 54 -10 67 -20 15 -18 -96
-95 -201 -180 -246 -51 -27 -52 -27 -274 -27 l-224 0 -24 28 -24 29 2 614 c3
713 -8 648 117 667 39 6 71 14 71 17 0 3 -124 5 -275 5 -151 0 -275 -3 -275
-6z"/>
<path d="M10470 3659 c0 -4 30 -10 66 -14 52 -5 72 -13 97 -35 l32 -28 0 -622
0 -622 -31 -28 c-25 -22 -45 -29 -98 -34 -36 -4 -66 -11 -66 -14 0 -4 124 -7
275 -7 151 0 275 3 275 7 0 4 -26 10 -57 14 -82 10 -110 26 -123 74 -7 26 -10
236 -8 636 l3 596 31 28 c24 21 46 29 93 35 34 4 61 10 61 13 0 4 -124 7 -275
7 -151 0 -275 -3 -275 -6z"/>
</g>
</svg>
